# xmcd CD database file
#
# Track frame offsets:
#	150
#	10893
#	23953
#	33311
#	40129
#	55937
#	69369
#	84822
#	98793
#
# Disc length: 1570 seconds
#
# Revision: 0
# Processed by: cddbd v1.5.1PL0 Copyright (c) Steve Scherf et al.
# Submitted via: CDex 1.51
#
DISCID=62062009
DTITLE=The Haygoods - Christmas Special (Live)
DYEAR=2004
DGENRE=Country
TTITLE0=Happy Holidays
TTITLE1=Santa Claus is Comin'
TTITLE2=The Night Before Christmas
TTITLE3=Frosty the Snowman
TTITLE4=Hang Up Your Stocking
TTITLE5=O Holy Night
TTITLE6=Little Drummer Boy
TTITLE7=Mary Did You Know
TTITLE8=Little Baby - Angels We Have Heard On High
EXTD=YEAR: 2004
EXTT0=
EXTT1=
EXTT2=
EXTT3=
EXTT4=
EXTT5=
EXTT6=
EXTT7=
EXTT8=
PLAYORDER=
